<svg xmlns="http://www.w3.org/2000/svg" xmlns:xlink="http://www.w3.org/1999/xlink" width="500" zoomAndPan="magnify" viewBox="0 0 375 374.999991" height="500" preserveAspectRatio="xMidYMid meet" version="1.0"><defs><g/><clipPath id="03bd343781"><path d="M 118.550781 98.5 L 265.550781 98.5 L 265.550781 248.5 L 118.550781 248.5 Z M 118.550781 98.5 " clip-rule="nonzero"/></clipPath></defs><g clip-path="url(#03bd343781)"><path fill="#000000" d="M 264.929688 203.519531 L 252.011719 175.914062 L 252.011719 131.042969 C 252.011719 130.3125 251.753906 129.6875 251.234375 129.167969 L 227.792969 105.75 C 227.273438 105.230469 226.648438 104.972656 225.914062 104.972656 L 211.359375 104.972656 L 207.753906 102.796875 C 207.125 102.417969 206.453125 102.316406 205.742188 102.492188 L 202.332031 103.328125 L 189.449219 98.660156 C 188.761719 98.410156 188.082031 98.441406 187.417969 98.75 L 174.070312 104.976562 L 151.074219 104.976562 C 150.722656 104.976562 150.382812 105.046875 150.058594 105.179688 C 149.730469 105.3125 149.445312 105.507812 149.195312 105.753906 C 148.945312 106.003906 148.753906 106.292969 148.617188 106.617188 C 148.484375 106.941406 148.417969 107.28125 148.417969 107.632812 L 148.417969 116.574219 L 133.972656 120.125 C 133.632812 120.210938 133.320312 120.355469 133.035156 120.5625 C 132.75 120.773438 132.515625 121.027344 132.335938 121.328125 C 132.152344 121.628906 132.035156 121.953125 131.980469 122.300781 C 131.929688 122.648438 131.945312 122.996094 132.027344 123.335938 L 132.308594 124.464844 L 120.457031 130 C 120.136719 130.148438 119.855469 130.355469 119.617188 130.613281 C 119.382812 130.875 119.203125 131.167969 119.082031 131.5 C 118.960938 131.832031 118.910156 132.171875 118.925781 132.523438 C 118.941406 132.875 119.023438 133.210938 119.171875 133.53125 L 148.417969 196.035156 L 148.417969 234.230469 C 148.417969 234.582031 148.484375 234.921875 148.621094 235.246094 C 148.753906 235.570312 148.945312 235.859375 149.195312 236.105469 C 149.445312 236.355469 149.730469 236.546875 150.058594 236.683594 C 150.382812 236.816406 150.722656 236.882812 151.074219 236.882812 L 159.988281 236.882812 L 161.921875 244.753906 C 162.007812 245.09375 162.152344 245.40625 162.363281 245.691406 C 162.570312 245.976562 162.828125 246.207031 163.128906 246.390625 C 163.429688 246.574219 163.753906 246.691406 164.101562 246.742188 C 164.453125 246.796875 164.796875 246.78125 165.140625 246.695312 L 171.402344 245.160156 L 172.171875 246.808594 C 172.320312 247.128906 172.523438 247.40625 172.785156 247.644531 C 173.042969 247.882812 173.339844 248.0625 173.671875 248.183594 C 174.003906 248.304688 174.34375 248.355469 174.695312 248.34375 C 175.050781 248.328125 175.386719 248.246094 175.707031 248.097656 L 193.746094 239.675781 L 205.074219 236.890625 L 249.355469 236.890625 C 249.707031 236.890625 250.046875 236.824219 250.371094 236.691406 C 250.699219 236.554688 250.984375 236.363281 251.234375 236.113281 C 251.484375 235.867188 251.675781 235.578125 251.808594 235.253906 C 251.945312 234.929688 252.011719 234.589844 252.011719 234.238281 L 252.011719 225.355469 L 259.398438 223.539062 C 259.742188 223.453125 260.054688 223.308594 260.339844 223.101562 C 260.625 222.890625 260.855469 222.636719 261.039062 222.335938 C 261.222656 222.035156 261.339844 221.710938 261.390625 221.363281 C 261.445312 221.015625 261.429688 220.667969 261.34375 220.328125 L 258.648438 209.371094 L 263.648438 207.039062 C 263.96875 206.890625 264.25 206.6875 264.488281 206.425781 C 264.726562 206.167969 264.90625 205.871094 265.027344 205.542969 C 265.148438 205.210938 265.199219 204.871094 265.183594 204.515625 C 265.171875 204.164062 265.089844 203.828125 264.941406 203.511719 Z M 228.570312 114.039062 L 242.9375 128.390625 L 228.570312 128.390625 Z M 188.671875 104.023438 L 191.300781 104.976562 L 186.621094 104.976562 Z M 148.417969 122.042969 L 148.417969 167.683594 L 137.816406 124.648438 Z M 133.59375 129.726562 L 145.082031 176.359375 L 125.113281 133.6875 Z M 165.464844 236.882812 L 182.828125 236.882812 L 166.453125 240.910156 Z M 153.734375 231.566406 L 153.734375 110.285156 L 223.253906 110.285156 L 223.253906 131.042969 C 223.253906 131.398438 223.324219 131.734375 223.457031 132.0625 C 223.59375 132.386719 223.785156 132.671875 224.035156 132.921875 C 224.285156 133.171875 224.570312 133.363281 224.898438 133.496094 C 225.222656 133.632812 225.5625 133.699219 225.914062 133.699219 L 246.695312 133.699219 L 246.695312 231.582031 Z M 252.011719 219.878906 L 252.011719 204.675781 L 255.550781 219.015625 Z M 257.355469 204.113281 L 255.140625 195.136719 L 258.988281 203.355469 Z M 161.691406 133.085938 C 161.691406 132.734375 161.757812 132.394531 161.890625 132.070312 C 162.027344 131.742188 162.21875 131.457031 162.46875 131.207031 C 162.71875 130.957031 163.003906 130.765625 163.332031 130.632812 C 163.65625 130.496094 163.996094 130.429688 164.347656 130.429688 L 186.921875 130.429688 C 187.269531 130.4375 187.601562 130.511719 187.917969 130.652344 C 188.238281 130.789062 188.515625 130.984375 188.757812 131.230469 C 189 131.480469 189.1875 131.761719 189.320312 132.085938 C 189.449219 132.40625 189.515625 132.738281 189.515625 133.085938 C 189.515625 133.433594 189.449219 133.765625 189.320312 134.085938 C 189.1875 134.40625 189 134.691406 188.757812 134.941406 C 188.515625 135.1875 188.238281 135.378906 187.917969 135.519531 C 187.601562 135.65625 187.269531 135.730469 186.921875 135.738281 L 164.351562 135.738281 C 164 135.738281 163.660156 135.671875 163.335938 135.539062 C 163.007812 135.402344 162.722656 135.214844 162.472656 134.964844 C 162.222656 134.714844 162.03125 134.429688 161.894531 134.105469 C 161.761719 133.78125 161.691406 133.445312 161.691406 133.09375 Z M 161.691406 144.03125 C 161.691406 143.679688 161.757812 143.339844 161.890625 143.015625 C 162.027344 142.691406 162.21875 142.402344 162.46875 142.15625 C 162.71875 141.90625 163.003906 141.714844 163.332031 141.582031 C 163.65625 141.445312 163.996094 141.378906 164.347656 141.378906 L 205.117188 141.378906 C 205.472656 141.378906 205.808594 141.445312 206.136719 141.582031 C 206.460938 141.714844 206.75 141.90625 207 142.15625 C 207.25 142.40625 207.441406 142.695312 207.578125 143.019531 C 207.710938 143.34375 207.78125 143.683594 207.78125 144.039062 C 207.78125 144.390625 207.710938 144.730469 207.578125 145.054688 C 207.441406 145.378906 207.25 145.667969 207 145.917969 C 206.75 146.167969 206.460938 146.359375 206.136719 146.492188 C 205.808594 146.628906 205.472656 146.695312 205.117188 146.695312 L 164.351562 146.695312 C 163.996094 146.695312 163.660156 146.628906 163.332031 146.492188 C 163.007812 146.359375 162.71875 146.167969 162.46875 145.917969 C 162.21875 145.667969 162.027344 145.382812 161.894531 145.054688 C 161.757812 144.730469 161.691406 144.390625 161.691406 144.039062 Z M 238.738281 158.738281 C 238.738281 159.089844 238.671875 159.429688 238.535156 159.753906 C 238.402344 160.078125 238.210938 160.367188 237.960938 160.613281 C 237.710938 160.863281 237.421875 161.054688 237.097656 161.191406 C 236.773438 161.324219 236.433594 161.394531 236.082031 161.394531 L 164.351562 161.394531 C 163.996094 161.394531 163.65625 161.324219 163.332031 161.191406 C 163.003906 161.054688 162.71875 160.863281 162.46875 160.613281 C 162.21875 160.363281 162.027344 160.078125 161.890625 159.75 C 161.753906 159.425781 161.6875 159.085938 161.6875 158.734375 C 161.6875 158.382812 161.753906 158.042969 161.890625 157.71875 C 162.027344 157.390625 162.21875 157.105469 162.46875 156.855469 C 162.71875 156.605469 163.003906 156.414062 163.332031 156.277344 C 163.65625 156.144531 163.996094 156.074219 164.351562 156.074219 L 236.082031 156.074219 C 236.4375 156.074219 236.777344 156.144531 237.101562 156.28125 C 237.429688 156.414062 237.71875 156.609375 237.96875 156.859375 C 238.214844 157.109375 238.410156 157.398438 238.542969 157.726562 C 238.675781 158.050781 238.742188 158.390625 238.742188 158.746094 Z M 238.738281 170.910156 C 238.742188 171.261719 238.675781 171.601562 238.542969 171.929688 C 238.40625 172.257812 238.214844 172.546875 237.964844 172.796875 C 237.71875 173.046875 237.429688 173.242188 237.101562 173.375 C 236.777344 173.511719 236.4375 173.578125 236.082031 173.578125 L 164.351562 173.578125 C 163.996094 173.578125 163.65625 173.511719 163.332031 173.378906 C 163.003906 173.242188 162.71875 173.050781 162.46875 172.800781 C 162.21875 172.550781 162.027344 172.265625 161.890625 171.9375 C 161.753906 171.613281 161.6875 171.273438 161.6875 170.921875 C 161.6875 170.570312 161.753906 170.230469 161.890625 169.902344 C 162.027344 169.578125 162.21875 169.289062 162.46875 169.042969 C 162.71875 168.792969 163.003906 168.601562 163.332031 168.464844 C 163.65625 168.332031 163.996094 168.261719 164.351562 168.261719 L 236.082031 168.261719 C 236.433594 168.261719 236.773438 168.332031 237.097656 168.464844 C 237.425781 168.601562 237.710938 168.792969 237.960938 169.039062 C 238.210938 169.289062 238.402344 169.578125 238.539062 169.902344 C 238.671875 170.226562 238.742188 170.566406 238.742188 170.917969 Z M 238.738281 183.082031 C 238.738281 183.433594 238.671875 183.773438 238.535156 184.097656 C 238.402344 184.421875 238.210938 184.710938 237.960938 184.960938 C 237.710938 185.207031 237.421875 185.398438 237.097656 185.535156 C 236.773438 185.667969 236.433594 185.734375 236.082031 185.734375 L 164.351562 185.734375 C 163.996094 185.738281 163.65625 185.667969 163.332031 185.535156 C 163.003906 185.398438 162.714844 185.207031 162.464844 184.957031 C 162.214844 184.710938 162.023438 184.421875 161.886719 184.09375 C 161.753906 183.769531 161.683594 183.429688 161.683594 183.078125 C 161.683594 182.726562 161.753906 182.386719 161.886719 182.058594 C 162.023438 181.734375 162.214844 181.445312 162.464844 181.195312 C 162.714844 180.945312 163.003906 180.753906 163.332031 180.621094 C 163.65625 180.484375 163.996094 180.417969 164.351562 180.417969 L 236.082031 180.417969 C 236.4375 180.417969 236.777344 180.488281 237.101562 180.621094 C 237.429688 180.757812 237.714844 180.949219 237.964844 181.199219 C 238.214844 181.449219 238.40625 181.738281 238.542969 182.066406 C 238.675781 182.394531 238.742188 182.734375 238.742188 183.085938 Z M 238.738281 195.253906 C 238.738281 195.605469 238.671875 195.945312 238.535156 196.269531 C 238.402344 196.597656 238.210938 196.882812 237.960938 197.132812 C 237.710938 197.378906 237.421875 197.570312 237.097656 197.707031 C 236.773438 197.839844 236.433594 197.910156 236.082031 197.910156 L 164.351562 197.910156 C 163.996094 197.910156 163.65625 197.839844 163.332031 197.707031 C 163.003906 197.570312 162.71875 197.378906 162.46875 197.128906 C 162.21875 196.878906 162.027344 196.59375 161.890625 196.265625 C 161.753906 195.941406 161.6875 195.601562 161.6875 195.25 C 161.6875 194.898438 161.753906 194.558594 161.890625 194.234375 C 162.027344 193.90625 162.21875 193.621094 162.46875 193.371094 C 162.71875 193.121094 163.003906 192.929688 163.332031 192.792969 C 163.65625 192.660156 163.996094 192.589844 164.351562 192.589844 L 236.082031 192.589844 C 236.4375 192.589844 236.777344 192.660156 237.101562 192.796875 C 237.429688 192.929688 237.71875 193.125 237.96875 193.375 C 238.21875 193.625 238.410156 193.914062 238.542969 194.242188 C 238.675781 194.570312 238.742188 194.910156 238.742188 195.261719 Z M 238.738281 207.425781 C 238.738281 207.777344 238.671875 208.117188 238.535156 208.441406 C 238.402344 208.765625 238.210938 209.054688 237.960938 209.304688 C 237.710938 209.550781 237.421875 209.742188 237.097656 209.878906 C 236.773438 210.011719 236.433594 210.082031 236.082031 210.082031 L 213.074219 210.082031 C 212.722656 210.082031 212.382812 210.011719 212.058594 209.878906 C 211.730469 209.742188 211.441406 209.550781 211.195312 209.300781 C 210.945312 209.054688 210.75 208.765625 210.617188 208.441406 C 210.480469 208.113281 210.414062 207.773438 210.414062 207.421875 C 210.414062 207.070312 210.480469 206.730469 210.617188 206.40625 C 210.75 206.078125 210.945312 205.792969 211.195312 205.542969 C 211.441406 205.292969 211.730469 205.101562 212.058594 204.964844 C 212.382812 204.832031 212.722656 204.765625 213.074219 204.765625 L 236.082031 204.765625 C 236.4375 204.761719 236.777344 204.832031 237.101562 204.96875 C 237.429688 205.101562 237.71875 205.296875 237.96875 205.546875 C 238.21875 205.796875 238.410156 206.085938 238.542969 206.414062 C 238.675781 206.738281 238.742188 207.082031 238.742188 207.433594 Z M 238.738281 207.425781 " fill-opacity="1" fill-rule="nonzero"/></g><g fill="#000000" fill-opacity="1"><g transform="translate(166.510452, 274.151701)"><g><path d="M 6.984375 0.234375 C 6.097656 0.234375 5.257812 0.0507812 4.46875 -0.3125 C 3.675781 -0.6875 3.007812 -1.195312 2.46875 -1.84375 C 1.914062 -2.476562 1.488281 -3.222656 1.1875 -4.078125 C 0.882812 -4.929688 0.734375 -5.820312 0.734375 -6.75 C 0.734375 -7.707031 0.882812 -8.601562 1.1875 -9.4375 C 1.5 -10.269531 1.9375 -10.988281 2.5 -11.59375 C 3.070312 -12.195312 3.757812 -12.664062 4.5625 -13 C 5.375 -13.332031 6.25 -13.5 7.1875 -13.5 C 8 -13.5 8.769531 -13.328125 9.5 -12.984375 C 10.238281 -12.640625 10.847656 -12.160156 11.328125 -11.546875 C 11.804688 -10.910156 12.046875 -10.207031 12.046875 -9.4375 C 12.046875 -9.164062 11.972656 -8.90625 11.828125 -8.65625 C 11.679688 -8.40625 11.472656 -8.203125 11.203125 -8.046875 C 10.941406 -7.898438 10.644531 -7.828125 10.3125 -7.828125 C 9.863281 -7.828125 9.503906 -7.957031 9.234375 -8.21875 C 8.960938 -8.488281 8.828125 -8.847656 8.828125 -9.296875 C 8.828125 -9.578125 8.90625 -9.820312 9.0625 -10.03125 C 9.21875 -10.25 9.414062 -10.414062 9.65625 -10.53125 C 9.894531 -10.644531 10.140625 -10.703125 10.390625 -10.703125 C 10.085938 -11.160156 9.648438 -11.535156 9.078125 -11.828125 C 8.515625 -12.117188 7.875 -12.265625 7.15625 -12.265625 C 6.375 -12.265625 5.671875 -12.035156 5.046875 -11.578125 C 4.421875 -11.128906 3.929688 -10.484375 3.578125 -9.640625 C 3.234375 -8.796875 3.0625 -7.820312 3.0625 -6.71875 C 3.0625 -6.070312 3.160156 -5.4375 3.359375 -4.8125 C 3.566406 -4.1875 3.859375 -3.617188 4.234375 -3.109375 C 4.609375 -2.578125 5.082031 -2.15625 5.65625 -1.84375 C 6.238281 -1.539062 6.867188 -1.390625 7.546875 -1.390625 C 8.046875 -1.390625 8.519531 -1.484375 8.96875 -1.671875 C 9.425781 -1.859375 9.816406 -2.113281 10.140625 -2.4375 C 10.453125 -2.75 10.710938 -3.085938 10.921875 -3.453125 C 11.128906 -3.816406 11.285156 -4.195312 11.390625 -4.59375 L 12.5625 -4.015625 C 12.25 -2.648438 11.613281 -1.597656 10.65625 -0.859375 C 9.707031 -0.128906 8.484375 0.234375 6.984375 0.234375 Z M 6.984375 0.234375 "/></g></g><g transform="translate(179.228224, 274.151701)"><g><path d="M 5.25 0.234375 C 4.332031 0.234375 3.523438 0.0234375 2.828125 -0.390625 C 2.128906 -0.816406 1.59375 -1.40625 1.21875 -2.15625 C 0.84375 -2.90625 0.65625 -3.757812 0.65625 -4.71875 C 0.65625 -5.664062 0.832031 -6.507812 1.1875 -7.25 C 1.550781 -8 2.082031 -8.59375 2.78125 -9.03125 C 3.476562 -9.46875 4.296875 -9.6875 5.234375 -9.6875 C 5.929688 -9.6875 6.570312 -9.5625 7.15625 -9.3125 C 7.738281 -9.0625 8.222656 -8.707031 8.609375 -8.25 C 8.992188 -7.800781 9.289062 -7.273438 9.5 -6.671875 C 9.707031 -6.066406 9.8125 -5.414062 9.8125 -4.71875 C 9.8125 -3.78125 9.628906 -2.9375 9.265625 -2.1875 C 8.910156 -1.445312 8.390625 -0.863281 7.703125 -0.4375 C 7.003906 0.0078125 6.1875 0.234375 5.25 0.234375 Z M 5.25 -0.875 C 5.769531 -0.875 6.222656 -1.023438 6.609375 -1.328125 C 6.992188 -1.640625 7.285156 -2.078125 7.484375 -2.640625 C 7.691406 -3.203125 7.796875 -3.859375 7.796875 -4.609375 C 7.796875 -5.421875 7.707031 -6.117188 7.53125 -6.703125 C 7.351562 -7.285156 7.078125 -7.753906 6.703125 -8.109375 C 6.304688 -8.460938 5.816406 -8.640625 5.234375 -8.640625 C 4.671875 -8.640625 4.1875 -8.460938 3.78125 -8.109375 C 3.382812 -7.753906 3.097656 -7.273438 2.921875 -6.671875 C 2.742188 -6.085938 2.65625 -5.398438 2.65625 -4.609375 C 2.65625 -3.859375 2.757812 -3.203125 2.96875 -2.640625 C 3.175781 -2.078125 3.476562 -1.640625 3.875 -1.328125 C 4.269531 -1.023438 4.726562 -0.875 5.25 -0.875 Z M 5.25 -0.875 "/></g></g><g transform="translate(189.678419, 274.151701)"><g><path d="M -0.46875 2.46875 L 1.59375 2.46875 L 1.59375 -8.453125 L -0.109375 -8.453125 L -0.109375 -9.4375 L 3.4375 -9.6875 L 3.4375 -7.921875 C 3.75 -8.492188 4.148438 -8.929688 4.640625 -9.234375 C 5.128906 -9.535156 5.679688 -9.6875 6.296875 -9.6875 C 7.023438 -9.6875 7.675781 -9.46875 8.25 -9.03125 C 8.832031 -8.59375 9.285156 -7.992188 9.609375 -7.234375 C 9.921875 -6.472656 10.078125 -5.640625 10.078125 -4.734375 C 10.078125 -3.765625 9.910156 -2.898438 9.578125 -2.140625 C 9.253906 -1.390625 8.789062 -0.804688 8.1875 -0.390625 C 7.582031 0.0234375 6.878906 0.234375 6.078125 0.234375 C 5.554688 0.234375 5.066406 0.109375 4.609375 -0.140625 C 4.160156 -0.390625 3.785156 -0.734375 3.484375 -1.171875 L 3.484375 2.453125 L 5.4375 2.453125 L 5.4375 3.53125 L -0.46875 3.53125 Z M 5.734375 -0.75 C 6.140625 -0.75 6.492188 -0.867188 6.796875 -1.109375 C 7.109375 -1.347656 7.359375 -1.671875 7.546875 -2.078125 C 7.890625 -2.890625 8.0625 -3.8125 8.0625 -4.84375 C 8.0625 -5.507812 7.972656 -6.113281 7.796875 -6.65625 C 7.628906 -7.207031 7.363281 -7.664062 7 -8.03125 C 6.632812 -8.382812 6.210938 -8.5625 5.734375 -8.5625 C 5.273438 -8.5625 4.863281 -8.394531 4.5 -8.0625 C 4.144531 -7.738281 3.863281 -7.28125 3.65625 -6.6875 C 3.457031 -6.09375 3.359375 -5.421875 3.359375 -4.671875 C 3.359375 -3.703125 3.539062 -2.828125 3.90625 -2.046875 C 4.09375 -1.648438 4.34375 -1.332031 4.65625 -1.09375 C 4.976562 -0.863281 5.335938 -0.75 5.734375 -0.75 Z M 5.734375 -0.75 "/></g></g><g transform="translate(200.401075, 274.151701)"><g><path d="M 2.953125 -11.09375 C 2.722656 -11.09375 2.503906 -11.148438 2.296875 -11.265625 C 2.097656 -11.378906 1.941406 -11.535156 1.828125 -11.734375 C 1.710938 -11.941406 1.65625 -12.160156 1.65625 -12.390625 C 1.65625 -12.628906 1.710938 -12.847656 1.828125 -13.046875 C 1.941406 -13.242188 2.097656 -13.398438 2.296875 -13.515625 C 2.503906 -13.640625 2.722656 -13.703125 2.953125 -13.703125 C 3.179688 -13.703125 3.394531 -13.640625 3.59375 -13.515625 C 3.800781 -13.398438 3.960938 -13.238281 4.078125 -13.03125 C 4.203125 -12.832031 4.265625 -12.617188 4.265625 -12.390625 C 4.265625 -12.160156 4.203125 -11.941406 4.078125 -11.734375 C 3.960938 -11.535156 3.800781 -11.378906 3.59375 -11.265625 C 3.394531 -11.148438 3.179688 -11.09375 2.953125 -11.09375 Z M 0.484375 0 L 0.484375 -0.984375 L 2.1875 -0.984375 L 2.1875 -8.453125 L 0.46875 -8.453125 L 0.46875 -9.4375 L 4.0625 -9.4375 L 4.0625 -0.984375 L 5.796875 -0.984375 L 5.796875 0 Z M 0.484375 0 "/></g></g><g transform="translate(206.245801, 274.151701)"><g><path d="M 3.125 0.234375 C 2.644531 0.234375 2.21875 0.148438 1.84375 -0.015625 C 1.476562 -0.191406 1.191406 -0.441406 0.984375 -0.765625 C 0.785156 -1.097656 0.6875 -1.484375 0.6875 -1.921875 C 0.6875 -2.265625 0.765625 -2.582031 0.921875 -2.875 C 1.078125 -3.164062 1.289062 -3.410156 1.5625 -3.609375 C 1.8125 -3.804688 2.101562 -3.992188 2.4375 -4.171875 C 2.769531 -4.347656 3.109375 -4.5 3.453125 -4.625 C 4.160156 -4.875 4.796875 -5.164062 5.359375 -5.5 C 5.617188 -5.65625 5.828125 -5.84375 5.984375 -6.0625 C 6.140625 -6.289062 6.21875 -6.53125 6.21875 -6.78125 C 6.21875 -7.4375 6.054688 -7.929688 5.734375 -8.265625 C 5.410156 -8.597656 4.945312 -8.765625 4.34375 -8.765625 C 3.914062 -8.765625 3.515625 -8.695312 3.140625 -8.5625 C 2.773438 -8.4375 2.488281 -8.257812 2.28125 -8.03125 C 2.644531 -8.03125 2.9375 -7.929688 3.15625 -7.734375 C 3.382812 -7.535156 3.5 -7.289062 3.5 -7 C 3.5 -6.757812 3.445312 -6.546875 3.34375 -6.359375 C 3.238281 -6.171875 3.09375 -6.019531 2.90625 -5.90625 C 2.71875 -5.800781 2.507812 -5.75 2.28125 -5.75 C 1.914062 -5.75 1.609375 -5.875 1.359375 -6.125 C 1.117188 -6.382812 1 -6.738281 1 -7.1875 C 1 -7.425781 1.078125 -7.679688 1.234375 -7.953125 C 1.390625 -8.234375 1.613281 -8.503906 1.90625 -8.765625 C 2.195312 -9.046875 2.59375 -9.269531 3.09375 -9.4375 C 3.59375 -9.601562 4.132812 -9.6875 4.71875 -9.6875 C 5.207031 -9.6875 5.644531 -9.628906 6.03125 -9.515625 C 6.425781 -9.410156 6.785156 -9.242188 7.109375 -9.015625 C 7.421875 -8.773438 7.664062 -8.441406 7.84375 -8.015625 C 8.019531 -7.597656 8.109375 -7.101562 8.109375 -6.53125 L 8.109375 -2.484375 C 8.109375 -2.234375 8.132812 -2.003906 8.1875 -1.796875 C 8.25 -1.597656 8.359375 -1.421875 8.515625 -1.265625 C 8.679688 -1.097656 8.890625 -1.015625 9.140625 -1.015625 C 9.878906 -1.015625 10.25 -1.535156 10.25 -2.578125 L 10.25 -3.890625 L 11.21875 -3.890625 L 11.21875 -2.75 C 11.21875 -2.164062 11.15625 -1.671875 11.03125 -1.265625 C 10.90625 -0.859375 10.726562 -0.550781 10.5 -0.34375 C 10.269531 -0.132812 10.015625 0.0078125 9.734375 0.09375 C 9.460938 0.1875 9.140625 0.234375 8.765625 0.234375 C 8.359375 0.234375 7.984375 0.15625 7.640625 0 C 7.304688 -0.15625 7.023438 -0.398438 6.796875 -0.734375 C 6.546875 -1.078125 6.398438 -1.484375 6.359375 -1.953125 C 6.191406 -1.535156 5.941406 -1.160156 5.609375 -0.828125 C 5.273438 -0.492188 4.890625 -0.234375 4.453125 -0.046875 C 4.023438 0.140625 3.582031 0.234375 3.125 0.234375 Z M 3.59375 -1.03125 C 3.96875 -1.03125 4.363281 -1.144531 4.78125 -1.375 C 5.195312 -1.601562 5.539062 -1.894531 5.8125 -2.25 C 6.082031 -2.59375 6.21875 -2.929688 6.21875 -3.265625 L 6.21875 -5.140625 C 5.882812 -4.796875 5.476562 -4.476562 5 -4.1875 C 4.53125 -3.894531 4.101562 -3.660156 3.71875 -3.484375 C 3.375 -3.335938 3.09375 -3.140625 2.875 -2.890625 C 2.664062 -2.640625 2.5625 -2.347656 2.5625 -2.015625 C 2.5625 -1.710938 2.648438 -1.472656 2.828125 -1.296875 C 3.003906 -1.117188 3.257812 -1.03125 3.59375 -1.03125 Z M 3.59375 -1.03125 "/></g></g></g></svg>