<svg xmlns="http://www.w3.org/2000/svg" xmlns:xlink="http://www.w3.org/1999/xlink" width="500" zoomAndPan="magnify" viewBox="0 0 375 374.999991" height="500" preserveAspectRatio="xMidYMid meet" version="1.0"><defs><g/><clipPath id="c2e1cf1b51"><path d="M 118.550781 98.5 L 265.550781 98.5 L 265.550781 248.5 L 118.550781 248.5 Z M 118.550781 98.5 " clip-rule="nonzero"/></clipPath></defs><g clip-path="url(#c2e1cf1b51)"><path fill="#000000" d="M 264.929688 203.519531 L 252.011719 175.914062 L 252.011719 131.042969 C 252.011719 130.3125 251.753906 129.6875 251.234375 129.167969 L 227.792969 105.75 C 227.273438 105.230469 226.648438 104.972656 225.914062 104.972656 L 211.359375 104.972656 L 207.753906 102.796875 C 207.125 102.417969 206.453125 102.316406 205.742188 102.492188 L 202.332031 103.328125 L 189.449219 98.660156 C 188.761719 98.410156 188.082031 98.441406 187.417969 98.75 L 174.070312 104.976562 L 151.074219 104.976562 C 150.722656 104.976562 150.382812 105.046875 150.058594 105.179688 C 149.730469 105.3125 149.445312 105.507812 149.195312 105.753906 C 148.945312 106.003906 148.753906 106.292969 148.617188 106.617188 C 148.484375 106.941406 148.417969 107.28125 148.417969 107.632812 L 148.417969 116.574219 L 133.972656 120.125 C 133.632812 120.210938 133.320312 120.355469 133.035156 120.5625 C 132.75 120.773438 132.515625 121.027344 132.335938 121.328125 C 132.152344 121.628906 132.035156 121.953125 131.980469 122.300781 C 131.929688 122.648438 131.945312 122.996094 132.027344 123.335938 L 132.308594 124.464844 L 120.457031 130 C 120.136719 130.148438 119.855469 130.355469 119.617188 130.613281 C 119.382812 130.875 119.203125 131.167969 119.082031 131.5 C 118.960938 131.832031 118.910156 132.171875 118.925781 132.523438 C 118.941406 132.875 119.023438 133.210938 119.171875 133.53125 L 148.417969 196.035156 L 148.417969 234.230469 C 148.417969 234.582031 148.484375 234.921875 148.621094 235.246094 C 148.753906 235.570312 148.945312 235.859375 149.195312 236.105469 C 149.445312 236.355469 149.730469 236.546875 150.058594 236.683594 C 150.382812 236.816406 150.722656 236.882812 151.074219 236.882812 L 159.988281 236.882812 L 161.921875 244.753906 C 162.007812 245.09375 162.152344 245.40625 162.363281 245.691406 C 162.570312 245.976562 162.828125 246.207031 163.128906 246.390625 C 163.429688 246.574219 163.753906 246.691406 164.101562 246.742188 C 164.453125 246.796875 164.796875 246.78125 165.140625 246.695312 L 171.402344 245.160156 L 172.171875 246.808594 C 172.320312 247.128906 172.523438 247.40625 172.785156 247.644531 C 173.042969 247.882812 173.339844 248.0625 173.671875 248.183594 C 174.003906 248.304688 174.34375 248.355469 174.695312 248.34375 C 175.050781 248.328125 175.386719 248.246094 175.707031 248.097656 L 193.746094 239.675781 L 205.074219 236.890625 L 249.355469 236.890625 C 249.707031 236.890625 250.046875 236.824219 250.371094 236.691406 C 250.699219 236.554688 250.984375 236.363281 251.234375 236.113281 C 251.484375 235.867188 251.675781 235.578125 251.808594 235.253906 C 251.945312 234.929688 252.011719 234.589844 252.011719 234.238281 L 252.011719 225.355469 L 259.398438 223.539062 C 259.742188 223.453125 260.054688 223.308594 260.339844 223.101562 C 260.625 222.890625 260.855469 222.636719 261.039062 222.335938 C 261.222656 222.035156 261.339844 221.710938 261.390625 221.363281 C 261.445312 221.015625 261.429688 220.667969 261.34375 220.328125 L 258.648438 209.371094 L 263.648438 207.039062 C 263.96875 206.890625 264.25 206.6875 264.488281 206.425781 C 264.726562 206.167969 264.90625 205.871094 265.027344 205.542969 C 265.148438 205.210938 265.199219 204.871094 265.183594 204.515625 C 265.171875 204.164062 265.089844 203.828125 264.941406 203.511719 Z M 228.570312 114.039062 L 242.9375 128.390625 L 228.570312 128.390625 Z M 188.671875 104.023438 L 191.300781 104.976562 L 186.621094 104.976562 Z M 148.417969 122.042969 L 148.417969 167.683594 L 137.816406 124.648438 Z M 133.59375 129.726562 L 145.082031 176.359375 L 125.113281 133.6875 Z M 165.464844 236.882812 L 182.828125 236.882812 L 166.453125 240.910156 Z M 153.734375 231.566406 L 153.734375 110.285156 L 223.253906 110.285156 L 223.253906 131.042969 C 223.253906 131.398438 223.324219 131.734375 223.457031 132.0625 C 223.59375 132.386719 223.785156 132.671875 224.035156 132.921875 C 224.285156 133.171875 224.570312 133.363281 224.898438 133.496094 C 225.222656 133.632812 225.5625 133.699219 225.914062 133.699219 L 246.695312 133.699219 L 246.695312 231.582031 Z M 252.011719 219.878906 L 252.011719 204.675781 L 255.550781 219.015625 Z M 257.355469 204.113281 L 255.140625 195.136719 L 258.988281 203.355469 Z M 161.691406 133.085938 C 161.691406 132.730469 161.757812 132.394531 161.890625 132.070312 C 162.027344 131.742188 162.21875 131.457031 162.46875 131.207031 C 162.71875 130.957031 163.003906 130.765625 163.332031 130.632812 C 163.65625 130.496094 163.996094 130.429688 164.347656 130.429688 L 186.921875 130.429688 C 187.269531 130.4375 187.601562 130.511719 187.917969 130.652344 C 188.238281 130.789062 188.515625 130.984375 188.757812 131.230469 C 189 131.480469 189.1875 131.761719 189.320312 132.085938 C 189.449219 132.40625 189.515625 132.738281 189.515625 133.085938 C 189.515625 133.433594 189.449219 133.765625 189.320312 134.085938 C 189.1875 134.40625 189 134.691406 188.757812 134.941406 C 188.515625 135.1875 188.238281 135.378906 187.917969 135.519531 C 187.601562 135.65625 187.269531 135.730469 186.921875 135.738281 L 164.351562 135.738281 C 164 135.738281 163.660156 135.671875 163.335938 135.539062 C 163.007812 135.402344 162.722656 135.214844 162.472656 134.964844 C 162.222656 134.714844 162.03125 134.429688 161.894531 134.105469 C 161.761719 133.78125 161.691406 133.445312 161.691406 133.09375 Z M 161.691406 144.03125 C 161.691406 143.679688 161.757812 143.339844 161.890625 143.015625 C 162.027344 142.691406 162.21875 142.402344 162.46875 142.15625 C 162.71875 141.90625 163.003906 141.714844 163.332031 141.582031 C 163.65625 141.445312 163.996094 141.378906 164.347656 141.378906 L 205.117188 141.378906 C 205.472656 141.378906 205.808594 141.445312 206.136719 141.582031 C 206.460938 141.714844 206.75 141.90625 207 142.15625 C 207.25 142.40625 207.441406 142.695312 207.578125 143.019531 C 207.710938 143.34375 207.78125 143.683594 207.78125 144.039062 C 207.78125 144.390625 207.710938 144.730469 207.578125 145.054688 C 207.441406 145.378906 207.25 145.667969 207 145.917969 C 206.75 146.167969 206.460938 146.359375 206.136719 146.492188 C 205.808594 146.628906 205.472656 146.695312 205.117188 146.695312 L 164.351562 146.695312 C 163.996094 146.695312 163.660156 146.628906 163.332031 146.492188 C 163.007812 146.359375 162.71875 146.167969 162.46875 145.917969 C 162.21875 145.667969 162.027344 145.382812 161.894531 145.054688 C 161.757812 144.730469 161.691406 144.390625 161.691406 144.039062 Z M 238.738281 158.738281 C 238.738281 159.089844 238.671875 159.429688 238.535156 159.753906 C 238.402344 160.078125 238.210938 160.367188 237.960938 160.613281 C 237.710938 160.863281 237.421875 161.054688 237.097656 161.191406 C 236.773438 161.324219 236.433594 161.394531 236.082031 161.394531 L 164.351562 161.394531 C 163.996094 161.394531 163.65625 161.324219 163.332031 161.191406 C 163.003906 161.054688 162.71875 160.863281 162.46875 160.613281 C 162.21875 160.363281 162.027344 160.078125 161.890625 159.75 C 161.753906 159.425781 161.6875 159.085938 161.6875 158.734375 C 161.6875 158.382812 161.753906 158.042969 161.890625 157.71875 C 162.027344 157.390625 162.21875 157.105469 162.46875 156.855469 C 162.71875 156.605469 163.003906 156.414062 163.332031 156.277344 C 163.65625 156.144531 163.996094 156.074219 164.351562 156.074219 L 236.082031 156.074219 C 236.4375 156.074219 236.777344 156.144531 237.101562 156.28125 C 237.429688 156.414062 237.71875 156.609375 237.96875 156.859375 C 238.214844 157.109375 238.410156 157.398438 238.542969 157.726562 C 238.675781 158.050781 238.742188 158.390625 238.742188 158.746094 Z M 238.738281 170.910156 C 238.742188 171.261719 238.675781 171.601562 238.542969 171.929688 C 238.40625 172.257812 238.214844 172.546875 237.964844 172.796875 C 237.71875 173.046875 237.429688 173.242188 237.101562 173.375 C 236.777344 173.511719 236.4375 173.578125 236.082031 173.578125 L 164.351562 173.578125 C 163.996094 173.578125 163.65625 173.511719 163.332031 173.378906 C 163.003906 173.242188 162.71875 173.050781 162.46875 172.800781 C 162.21875 172.550781 162.027344 172.265625 161.890625 171.9375 C 161.753906 171.613281 161.6875 171.273438 161.6875 170.921875 C 161.6875 170.570312 161.753906 170.230469 161.890625 169.902344 C 162.027344 169.578125 162.21875 169.289062 162.46875 169.042969 C 162.71875 168.792969 163.003906 168.601562 163.332031 168.464844 C 163.65625 168.332031 163.996094 168.261719 164.351562 168.261719 L 236.082031 168.261719 C 236.433594 168.261719 236.773438 168.332031 237.097656 168.464844 C 237.425781 168.597656 237.710938 168.792969 237.960938 169.039062 C 238.210938 169.289062 238.402344 169.578125 238.539062 169.902344 C 238.671875 170.226562 238.742188 170.566406 238.742188 170.917969 Z M 238.738281 183.082031 C 238.738281 183.433594 238.671875 183.773438 238.535156 184.097656 C 238.402344 184.421875 238.210938 184.710938 237.960938 184.960938 C 237.710938 185.207031 237.421875 185.398438 237.097656 185.535156 C 236.773438 185.667969 236.433594 185.734375 236.082031 185.734375 L 164.351562 185.734375 C 163.996094 185.738281 163.65625 185.667969 163.332031 185.535156 C 163.003906 185.398438 162.714844 185.207031 162.464844 184.957031 C 162.214844 184.710938 162.023438 184.421875 161.886719 184.09375 C 161.753906 183.769531 161.683594 183.429688 161.683594 183.078125 C 161.683594 182.726562 161.753906 182.386719 161.886719 182.058594 C 162.023438 181.734375 162.214844 181.445312 162.464844 181.195312 C 162.714844 180.945312 163.003906 180.753906 163.332031 180.621094 C 163.65625 180.484375 163.996094 180.417969 164.351562 180.417969 L 236.082031 180.417969 C 236.4375 180.417969 236.777344 180.488281 237.101562 180.621094 C 237.429688 180.757812 237.714844 180.949219 237.964844 181.199219 C 238.214844 181.449219 238.40625 181.738281 238.542969 182.066406 C 238.675781 182.394531 238.742188 182.734375 238.742188 183.085938 Z M 238.738281 195.253906 C 238.738281 195.605469 238.671875 195.945312 238.535156 196.269531 C 238.402344 196.597656 238.210938 196.882812 237.960938 197.132812 C 237.710938 197.378906 237.421875 197.570312 237.097656 197.707031 C 236.773438 197.839844 236.433594 197.910156 236.082031 197.910156 L 164.351562 197.910156 C 163.996094 197.910156 163.65625 197.839844 163.332031 197.707031 C 163.003906 197.570312 162.71875 197.378906 162.46875 197.128906 C 162.21875 196.878906 162.027344 196.59375 161.890625 196.265625 C 161.753906 195.941406 161.6875 195.601562 161.6875 195.25 C 161.6875 194.898438 161.753906 194.558594 161.890625 194.234375 C 162.027344 193.90625 162.21875 193.621094 162.46875 193.371094 C 162.71875 193.121094 163.003906 192.929688 163.332031 192.792969 C 163.65625 192.660156 163.996094 192.589844 164.351562 192.589844 L 236.082031 192.589844 C 236.4375 192.589844 236.777344 192.660156 237.101562 192.796875 C 237.429688 192.929688 237.71875 193.125 237.96875 193.375 C 238.21875 193.625 238.410156 193.914062 238.542969 194.242188 C 238.675781 194.570312 238.742188 194.910156 238.742188 195.261719 Z M 238.738281 207.425781 C 238.738281 207.777344 238.671875 208.117188 238.535156 208.441406 C 238.402344 208.765625 238.210938 209.054688 237.960938 209.304688 C 237.710938 209.550781 237.421875 209.742188 237.097656 209.878906 C 236.773438 210.011719 236.433594 210.082031 236.082031 210.082031 L 213.074219 210.082031 C 212.722656 210.082031 212.382812 210.011719 212.058594 209.878906 C 211.730469 209.742188 211.441406 209.550781 211.195312 209.300781 C 210.945312 209.054688 210.75 208.765625 210.617188 208.441406 C 210.480469 208.113281 210.414062 207.773438 210.414062 207.421875 C 210.414062 207.070312 210.480469 206.730469 210.617188 206.40625 C 210.75 206.078125 210.945312 205.792969 211.195312 205.542969 C 211.441406 205.292969 211.730469 205.101562 212.058594 204.964844 C 212.382812 204.832031 212.722656 204.765625 213.074219 204.765625 L 236.082031 204.765625 C 236.4375 204.761719 236.777344 204.832031 237.101562 204.96875 C 237.429688 205.101562 237.71875 205.296875 237.96875 205.546875 C 238.21875 205.796875 238.410156 206.085938 238.542969 206.414062 C 238.675781 206.738281 238.742188 207.082031 238.742188 207.433594 Z M 238.738281 207.425781 " fill-opacity="1" fill-rule="nonzero"/></g><g fill="#000000" fill-opacity="1"><g transform="translate(159.467483, 274.151701)"><g><path d="M 3.265625 0 L 3.265625 -1.25 L 5.3125 -1.25 L 5.3125 -11.96875 L 1.9375 -11.96875 L 1.9375 -7.890625 L 0.3125 -7.890625 L 0.3125 -13.234375 L 12.3125 -13.234375 L 12.3125 -7.890625 L 10.671875 -7.890625 L 10.671875 -11.96875 L 7.390625 -11.96875 L 7.390625 -1.25 L 9.484375 -1.25 L 9.484375 0 Z M 3.265625 0 "/></g></g><g transform="translate(172.079787, 274.151701)"><g><path d="M 0.296875 0 L 0.296875 -1.25 L 2.453125 -1.25 L 2.453125 -11.96875 L 0.296875 -11.96875 L 0.296875 -13.234375 L 12.25 -13.234375 L 12.25 -8.140625 L 10.65625 -8.140625 L 10.65625 -11.96875 L 4.515625 -11.96875 L 4.515625 -7.21875 L 7.796875 -7.21875 L 7.796875 -9.375 L 8.96875 -9.375 L 8.96875 -3.921875 L 7.796875 -3.921875 L 7.796875 -6.21875 L 4.515625 -6.21875 L 4.515625 -1.25 L 10.65625 -1.25 L 10.65625 -5.015625 L 12.25 -5.015625 L 12.25 0 Z M 0.296875 0 "/></g></g><g transform="translate(185.122755, 274.151701)"><g><path d="M 0.296875 0 L 0.296875 -1.25 L 2.421875 -1.25 L 2.421875 -11.96875 L 0.296875 -11.96875 L 0.296875 -13.234375 L 6.515625 -13.234375 L 6.515625 -11.96875 L 4.5 -11.96875 L 4.5 -1.25 L 9.46875 -1.25 L 9.46875 -5.5 L 11.109375 -5.5 L 11.109375 0 Z M 0.296875 0 "/></g></g><g transform="translate(196.460645, 274.151701)"><g><path d="M 0.296875 0 L 0.296875 -1.25 L 2.453125 -1.25 L 2.453125 -11.96875 L 0.296875 -11.96875 L 0.296875 -13.234375 L 12.25 -13.234375 L 12.25 -8.140625 L 10.65625 -8.140625 L 10.65625 -11.96875 L 4.515625 -11.96875 L 4.515625 -7.21875 L 7.796875 -7.21875 L 7.796875 -9.375 L 8.96875 -9.375 L 8.96875 -3.921875 L 7.796875 -3.921875 L 7.796875 -6.21875 L 4.515625 -6.21875 L 4.515625 -1.25 L 10.65625 -1.25 L 10.65625 -5.015625 L 12.25 -5.015625 L 12.25 0 Z M 0.296875 0 "/></g></g><g transform="translate(209.503613, 274.151701)"><g><path d="M 0.140625 0 L 0.140625 -1.25 L 1.90625 -1.25 L 6.34375 -6.671875 L 2.34375 -11.96875 L 0.203125 -11.96875 L 0.203125 -13.234375 L 6.765625 -13.234375 L 6.765625 -11.96875 L 4.75 -11.96875 L 7.578125 -8.21875 L 10.625 -11.96875 L 8.453125 -11.96875 L 8.453125 -13.234375 L 14.671875 -13.234375 L 14.671875 -11.96875 L 12.65625 -11.96875 L 8.5625 -6.90625 L 12.875 -1.25 L 14.796875 -1.25 L 14.796875 0 L 8.515625 0 L 8.515625 -1.25 L 10.453125 -1.25 L 7.328125 -5.359375 L 3.984375 -1.25 L 5.84375 -1.25 L 5.84375 0 Z M 0.140625 0 "/></g></g></g><g fill="#000000" fill-opacity="1"><g transform="translate(146.576859, 298.9017)"><g><path d="M 11.265625 0.296875 C 10.910156 0.296875 10.585938 0.226562 10.296875 0.09375 C 10.003906 -0.03125 9.757812 -0.203125 9.5625 -0.421875 C 9.375 -0.628906 9.203125 -0.910156 9.046875 -1.265625 C 8.898438 -1.617188 8.773438 -2.007812 8.671875 -2.4375 C 8.546875 -2.914062 8.445312 -3.394531 8.375 -3.875 C 8.3125 -4.207031 8.21875 -4.515625 8.09375 -4.796875 C 7.96875 -5.078125 7.832031 -5.289062 7.6875 -5.4375 C 7.539062 -5.582031 7.390625 -5.703125 7.234375 -5.796875 C 7.078125 -5.898438 6.945312 -5.96875 6.84375 -6 C 6.75 -6.019531 6.660156 -6.03125 6.578125 -6.03125 L 4.5 -6.03125 L 4.5 -1.25 L 6.5 -1.25 L 6.5 0 L 0.296875 0 L 0.296875 -1.25 L 2.421875 -1.25 L 2.421875 -11.96875 L 0.296875 -11.96875 L 0.296875 -13.234375 L 5.75 -13.234375 C 6.144531 -13.234375 6.472656 -13.222656 6.734375 -13.203125 C 6.992188 -13.191406 7.320312 -13.171875 7.71875 -13.140625 C 8.207031 -13.085938 8.609375 -13.019531 8.921875 -12.9375 C 9.234375 -12.863281 9.582031 -12.738281 9.96875 -12.5625 C 10.332031 -12.394531 10.625 -12.191406 10.84375 -11.953125 C 11.070312 -11.710938 11.257812 -11.398438 11.40625 -11.015625 C 11.550781 -10.648438 11.625 -10.222656 11.625 -9.734375 C 11.625 -8.710938 11.304688 -7.945312 10.671875 -7.4375 C 10.359375 -7.195312 10.019531 -7.003906 9.65625 -6.859375 C 9.289062 -6.710938 8.851562 -6.585938 8.34375 -6.484375 C 8.6875 -6.410156 8.972656 -6.3125 9.203125 -6.1875 C 9.429688 -6.0625 9.625 -5.898438 9.78125 -5.703125 C 9.925781 -5.515625 10.046875 -5.3125 10.140625 -5.09375 C 10.234375 -4.875 10.328125 -4.585938 10.421875 -4.234375 C 10.492188 -3.941406 10.601562 -3.460938 10.75 -2.796875 C 10.78125 -2.597656 10.832031 -2.394531 10.90625 -2.1875 C 10.976562 -1.976562 11.050781 -1.816406 11.125 -1.703125 C 11.195312 -1.566406 11.289062 -1.457031 11.40625 -1.375 C 11.519531 -1.289062 11.648438 -1.25 11.796875 -1.25 C 12.398438 -1.25 12.703125 -1.804688 12.703125 -2.921875 L 12.703125 -4.140625 L 13.890625 -4.140625 L 13.890625 -2.84375 C 13.890625 -0.75 13.015625 0.296875 11.265625 0.296875 Z M 5.59375 -7.34375 C 6.539062 -7.34375 7.304688 -7.410156 7.890625 -7.546875 C 8.472656 -7.691406 8.929688 -7.925781 9.265625 -8.25 C 9.609375 -8.582031 9.78125 -9.023438 9.78125 -9.578125 C 9.78125 -10.054688 9.691406 -10.445312 9.515625 -10.75 C 9.347656 -11.0625 9.078125 -11.3125 8.703125 -11.5 C 8.347656 -11.664062 7.921875 -11.785156 7.421875 -11.859375 C 6.929688 -11.929688 6.300781 -11.96875 5.53125 -11.96875 L 4.5 -11.96875 L 4.5 -7.34375 Z M 5.59375 -7.34375 "/></g></g><g transform="translate(160.489944, 298.9017)"><g><path d="M 0.296875 0 L 0.296875 -1.25 L 2.453125 -1.25 L 2.453125 -11.96875 L 0.296875 -11.96875 L 0.296875 -13.234375 L 12.25 -13.234375 L 12.25 -8.140625 L 10.65625 -8.140625 L 10.65625 -11.96875 L 4.515625 -11.96875 L 4.515625 -7.21875 L 7.796875 -7.21875 L 7.796875 -9.375 L 8.96875 -9.375 L 8.96875 -3.921875 L 7.796875 -3.921875 L 7.796875 -6.21875 L 4.515625 -6.21875 L 4.515625 -1.25 L 10.65625 -1.25 L 10.65625 -5.015625 L 12.25 -5.015625 L 12.25 0 Z M 0.296875 0 "/></g></g><g transform="translate(173.532912, 298.9017)"><g><path d="M 0.296875 0 L 0.296875 -1.25 L 2.421875 -1.25 L 2.421875 -11.96875 L 0.296875 -11.96875 L 0.296875 -13.234375 L 6.515625 -13.234375 L 6.515625 -11.96875 L 4.5 -11.96875 L 4.5 -1.25 L 9.46875 -1.25 L 9.46875 -5.5 L 11.109375 -5.5 L 11.109375 0 Z M 0.296875 0 "/></g></g><g transform="translate(184.870802, 298.9017)"><g><path d="M 0.296875 0 L 0.296875 -1.25 L 2.453125 -1.25 L 2.453125 -11.96875 L 0.296875 -11.96875 L 0.296875 -13.234375 L 12.25 -13.234375 L 12.25 -8.140625 L 10.65625 -8.140625 L 10.65625 -11.96875 L 4.515625 -11.96875 L 4.515625 -7.21875 L 7.796875 -7.21875 L 7.796875 -9.375 L 8.96875 -9.375 L 8.96875 -3.921875 L 7.796875 -3.921875 L 7.796875 -6.21875 L 4.515625 -6.21875 L 4.515625 -1.25 L 10.65625 -1.25 L 10.65625 -5.015625 L 12.25 -5.015625 L 12.25 0 Z M 0.296875 0 "/></g></g><g transform="translate(197.91377, 298.9017)"><g><path d="M 0.078125 0 L 0.078125 -1.25 L 1.65625 -1.25 L 6.28125 -13.234375 L 8.375 -13.234375 L 13.0625 -1.25 L 14.546875 -1.25 L 14.546875 0 L 8.859375 0 L 8.859375 -1.25 L 10.8125 -1.25 L 9.59375 -4.4375 L 4.515625 -4.4375 L 3.359375 -1.25 L 5.578125 -1.25 L 5.578125 0 Z M 4.9375 -5.546875 L 9.15625 -5.546875 L 6.984375 -11.5 Z M 4.9375 -5.546875 "/></g></g><g transform="translate(212.521191, 298.9017)"><g><path d="M 5.9375 0.234375 C 5.25 0.234375 4.585938 0.164062 3.953125 0.03125 C 3.328125 -0.09375 2.753906 -0.28125 2.234375 -0.53125 C 1.703125 -0.789062 1.28125 -1.128906 0.96875 -1.546875 C 0.664062 -1.972656 0.515625 -2.441406 0.515625 -2.953125 C 0.515625 -3.265625 0.585938 -3.546875 0.734375 -3.796875 C 0.878906 -4.054688 1.070312 -4.257812 1.3125 -4.40625 C 1.5625 -4.550781 1.828125 -4.625 2.109375 -4.625 C 2.359375 -4.625 2.585938 -4.550781 2.796875 -4.40625 C 3.015625 -4.269531 3.1875 -4.085938 3.3125 -3.859375 C 3.4375 -3.640625 3.5 -3.410156 3.5 -3.171875 C 3.5 -2.796875 3.390625 -2.5 3.171875 -2.28125 C 2.960938 -2.070312 2.660156 -1.941406 2.265625 -1.890625 C 2.691406 -1.585938 3.164062 -1.363281 3.6875 -1.21875 C 4.21875 -1.070312 4.875 -1 5.65625 -1 C 6.96875 -1 7.921875 -1.3125 8.515625 -1.9375 C 8.828125 -2.289062 8.984375 -2.707031 8.984375 -3.1875 C 8.984375 -3.726562 8.800781 -4.171875 8.4375 -4.515625 C 8.269531 -4.671875 8.035156 -4.816406 7.734375 -4.953125 C 7.429688 -5.097656 7.09375 -5.226562 6.71875 -5.34375 C 6.300781 -5.46875 5.859375 -5.585938 5.390625 -5.703125 C 4.210938 -5.992188 3.269531 -6.332031 2.5625 -6.71875 C 1.863281 -7.113281 1.375 -7.554688 1.09375 -8.046875 C 0.820312 -8.523438 0.6875 -9.101562 0.6875 -9.78125 C 0.6875 -10.488281 0.898438 -11.125 1.328125 -11.6875 C 1.753906 -12.257812 2.347656 -12.703125 3.109375 -13.015625 C 3.878906 -13.335938 4.753906 -13.5 5.734375 -13.5 C 6.585938 -13.5 7.4375 -13.363281 8.28125 -13.09375 C 8.757812 -12.945312 9.171875 -12.757812 9.515625 -12.53125 C 9.859375 -12.3125 10.140625 -12.039062 10.359375 -11.71875 C 10.585938 -11.375 10.703125 -11 10.703125 -10.59375 C 10.703125 -10.070312 10.566406 -9.648438 10.296875 -9.328125 C 10.023438 -9.003906 9.660156 -8.84375 9.203125 -8.84375 C 8.941406 -8.84375 8.695312 -8.894531 8.46875 -9 C 8.238281 -9.101562 8.054688 -9.25 7.921875 -9.4375 C 7.785156 -9.625 7.71875 -9.835938 7.71875 -10.078125 C 7.71875 -10.523438 7.832031 -10.863281 8.0625 -11.09375 C 8.289062 -11.332031 8.582031 -11.453125 8.9375 -11.453125 C 8.238281 -11.992188 7.242188 -12.265625 5.953125 -12.265625 C 5.390625 -12.265625 4.867188 -12.179688 4.390625 -12.015625 C 3.921875 -11.847656 3.539062 -11.601562 3.25 -11.28125 C 2.9375 -10.957031 2.78125 -10.578125 2.78125 -10.140625 C 2.78125 -9.910156 2.800781 -9.71875 2.84375 -9.5625 C 2.882812 -9.414062 2.960938 -9.257812 3.078125 -9.09375 C 3.203125 -8.914062 3.375 -8.753906 3.59375 -8.609375 C 3.8125 -8.472656 4.113281 -8.332031 4.5 -8.1875 C 4.875 -8.039062 5.332031 -7.910156 5.875 -7.796875 C 7.5625 -7.410156 8.820312 -6.957031 9.65625 -6.4375 C 10.039062 -6.1875 10.351562 -5.898438 10.59375 -5.578125 C 10.832031 -5.265625 11 -4.941406 11.09375 -4.609375 C 11.1875 -4.285156 11.234375 -3.910156 11.234375 -3.484375 C 11.234375 -2.710938 11.023438 -2.046875 10.609375 -1.484375 C 10.203125 -0.929688 9.601562 -0.503906 8.8125 -0.203125 C 8.019531 0.0859375 7.0625 0.234375 5.9375 0.234375 Z M 5.9375 0.234375 "/></g></g><g transform="translate(224.272167, 298.9017)"><g><path d="M 0.296875 0 L 0.296875 -1.25 L 2.453125 -1.25 L 2.453125 -11.96875 L 0.296875 -11.96875 L 0.296875 -13.234375 L 12.25 -13.234375 L 12.25 -8.140625 L 10.65625 -8.140625 L 10.65625 -11.96875 L 4.515625 -11.96875 L 4.515625 -7.21875 L 7.796875 -7.21875 L 7.796875 -9.375 L 8.96875 -9.375 L 8.96875 -3.921875 L 7.796875 -3.921875 L 7.796875 -6.21875 L 4.515625 -6.21875 L 4.515625 -1.25 L 10.65625 -1.25 L 10.65625 -5.015625 L 12.25 -5.015625 L 12.25 0 Z M 0.296875 0 "/></g></g></g></svg>